<?xml version="1.0" encoding="UTF-8" standalone="no"?><!DOCTYPE svg PUBLIC "-//W3C//DTD SVG 1.1//EN" "http://www.w3.org/Graphics/SVG/1.1/DTD/svg11.dtd"><svg width="100%" height="100%" viewBox="0 0 350 350" version="1.1" xmlns="http://www.w3.org/2000/svg" xmlns:xlink="http://www.w3.org/1999/xlink" xml:space="preserve" xmlns:serif="http://www.serif.com/" style="fill-rule:evenodd;clip-rule:evenodd;stroke-linejoin:round;stroke-miterlimit:2;"><path d="M219.546,249.565c-1.375,7.475 -2.558,14.991 -1.8,22.616c0.346,3.446 1.767,6.467 5.688,7.825c-0.213,-1.079 -0.071,-2.525 -0.642,-2.9c-2.375,-1.566 -1.975,-3.808 -1.925,-6.025c0.175,-7.195 -0.096,-14.37 -1.321,-21.516m-186.704,-0.179c1.308,-3.93 4.058,-6.784 7.267,-9.13c7.133,-5.208 11.32,-12.32 13.366,-20.695c2.088,-8.538 3.621,-17.213 5.688,-25.759c1.466,-6.062 3.187,-12.087 5.221,-17.987c1.708,-4.971 4.82,-9.171 8.92,-12.629c-1.937,-2.871 -3.937,-5.634 -5.72,-8.525c-9.521,-15.45 -14.238,-32.209 -13.4,-50.409c0.308,-6.691 1.52,-13.254 3.725,-19.6c0.195,-0.558 0.791,-0.975 1.2,-1.458c0.162,0.621 0.508,1.262 0.458,1.867c-1.379,16.779 0.617,33.033 7.737,48.429c3.267,7.066 7.73,13.258 14.475,17.512c0.446,0.284 0.921,0.529 1.367,0.821c1.738,1.138 3.404,1.221 5.475,0.521c8.946,-3.038 18.229,-4.604 27.629,-5.033c13.746,-0.625 27.513,-0.817 41.271,-1.221c12.35,-0.363 24.617,-1.204 36.708,-4.171c14.43,-3.538 24.188,-12.333 30.109,-25.646c2.829,-6.362 5.333,-12.867 7.941,-19.321c2.192,-5.433 4.538,-10.775 8.138,-15.679c-3.363,-4.129 -5.017,-9 -5.613,-14.242c-0.37,-3.287 -0.412,-6.612 -0.858,-9.883c-0.454,-3.321 -1.121,-6.617 -1.875,-9.883c-0.475,-2.075 0.238,-3.067 2.329,-2.442c2.763,0.825 5.446,1.913 8.15,2.908c0.538,0.196 1.034,0.5 1.996,0.971c-0.4,-2.646 -0.804,-4.891 -1.037,-7.154c-0.075,-0.771 0.083,-1.754 0.533,-2.321c0.262,-0.333 1.379,-0.216 2.004,0.009c11.992,4.254 19.288,12.741 22.329,24.995c0.275,1.109 0.788,1.25 1.867,1.225c8.917,-0.22 17.117,1.9 23.329,8.663c4.367,4.758 8.004,10.112 8.125,17.008c0.029,1.704 0.804,2.742 2.479,3.129c3.159,0.725 6.292,1.563 9.471,2.196c2.421,0.484 3.283,1.779 2.704,4.142c-0.404,1.65 -0.458,3.379 -0.796,5.046c-0.687,3.441 -2.795,5.896 -5.208,8.4c-4.546,4.729 -10.562,5.408 -16.342,6.921c-2.566,0.67 -5.166,1.304 -7.641,2.233c-6.417,2.417 -10.709,6.871 -12.742,13.525c-2.467,8.067 -3.546,16.371 -4.567,24.696c-1.375,11.187 -2.358,22.446 -5.633,33.316c-3.154,10.459 -8.3,19.534 -17.625,25.78c-0.467,0.312 -0.825,0.995 -0.95,1.566c-3.283,15.375 -6.262,30.804 -6.525,46.596c-0.05,3.233 0.163,6.508 0.671,9.7c0.496,3.138 1.867,5.817 4.942,7.542c4.058,2.279 6.395,6 7.333,10.55c0.104,0.508 -0.192,1.1 -0.288,1.591c-0.812,0.063 -1.775,0.13 -2.737,0.213c-4.371,0.371 -8.725,0.187 -13.042,-0.608c-2.658,-0.488 -5.096,-1.767 -6.421,-4.055c-1.387,-2.391 -3.204,-1.566 -5.108,-1.616c-4.692,-0.138 -9.512,0.483 -13.917,-1.804c-2.466,-1.284 -4.254,-3.371 -5.104,-5.917c-1.116,-3.329 -1.804,-6.813 -2.55,-10.254c-0.346,-1.588 0.154,-3.313 -1.579,-4.571c-0.604,-0.438 -0.679,-1.996 -0.558,-2.988c1.512,-12.529 0.658,-25 -0.784,-37.462c-0.125,-1.108 -0.429,-1.646 -1.645,-1.779c-25.242,-2.784 -49.88,-8.746 -74.6,-14.271c-1.213,-0.271 -2.042,-0.096 -2.996,0.779c-6.713,6.138 -14.517,10.733 -22.175,15.529c-6.004,3.763 -11.959,7.609 -17.967,11.367c-7.237,4.533 -11.433,11.017 -12.942,19.408c-0.795,4.425 -1.833,8.784 -1.07,13.329c0.354,2.1 1.245,3.83 3.075,4.946c3.904,2.384 6.754,5.496 7.508,10.204c0.154,0.975 0.55,1.909 0.817,2.8c-0.63,0.08 -1.163,0.059 -1.634,0.217c-3.816,1.3 -7.675,1.092 -11.521,0.25c-2.479,-0.542 -4.216,-2.104 -6.1,-3.875c-5.862,-5.508 -6.366,-12.637 -6.866,-19.846c-0.167,-2.371 -0.025,-4.766 -0.234,-7.162c-2.116,6.716 -4.091,13.433 -3.07,20.596c0.325,2.275 1.304,4.141 3.304,5.404c3.929,2.483 6.608,5.825 7.304,10.571c0.142,0.958 0.55,1.875 0.879,2.958c-2.25,0.408 -4.242,1.067 -6.233,1.062c-2.625,-0.004 -5.284,-0.35 -7.859,-0.883c-2.108,-0.437 -3.804,-1.692 -5.02,-3.637c-1.234,-1.975 -3.18,-3.592 -4.059,-5.684c-1.221,-2.904 -1.758,-6.096 -2.537,-9.175c-0.3,-1.196 -0.467,-2.421 -0.696,-3.633l0,-29.083Z" style="fill:#231f20;fill-rule:nonzero;"/></svg>