<?xml version="1.0" encoding="UTF-8" standalone="no"?><!DOCTYPE svg PUBLIC "-//W3C//DTD SVG 1.1//EN" "http://www.w3.org/Graphics/SVG/1.1/DTD/svg11.dtd"><svg width="100%" height="100%" viewBox="0 0 350 350" version="1.1" xmlns="http://www.w3.org/2000/svg" xmlns:xlink="http://www.w3.org/1999/xlink" xml:space="preserve" xmlns:serif="http://www.serif.com/" style="fill-rule:evenodd;clip-rule:evenodd;stroke-linejoin:round;stroke-miterlimit:2;"><path d="M83.932,211.253c-0.663,0.357 -0.585,1.053 -0.817,1.581c-0.233,0.523 -0.488,1.001 -1.129,1.042c-0.7,0.046 -1.135,-0.369 -1.439,-0.936c-0.496,-0.932 -0.597,-1.972 -0.747,-2.99c-0.774,-5.211 -0.194,-10.42 0.124,-15.624c0.162,-2.638 0.22,-5.261 0.14,-8.368c-1.13,1.202 -1.879,2.043 -2.679,2.833c-0.445,0.443 -0.86,1.226 -1.636,0.785c-0.625,-0.355 -0.402,-1.092 -0.305,-1.676c0.54,-3.233 0.999,-6.487 1.682,-9.693c1.217,-5.7 2.465,-11.393 3.176,-17.187c0.171,-1.395 0.236,-2.785 0.043,-4.176c-0.051,-0.358 -0.149,-0.745 -0.562,-0.86c-0.445,-0.123 -0.646,0.244 -0.867,0.521c-0.716,0.904 -1.416,1.821 -2.142,2.718c-0.262,0.328 -0.554,0.696 -1.054,0.564c-0.573,-0.151 -0.702,-0.648 -0.72,-1.141c-0.041,-1.093 -0.01,-2.187 -0.062,-3.28c-0.046,-0.969 -0.152,-1.933 -0.26,-2.896c-0.041,-0.35 -0.082,-0.81 -0.531,-0.843c-0.416,-0.028 -0.574,0.387 -0.731,0.716c-0.645,1.373 -1.27,2.757 -1.933,4.125c-0.264,0.543 -0.558,1.085 -0.921,1.565c-0.357,0.47 -0.736,1.06 -1.438,0.963c-0.727,-0.098 -0.841,-0.796 -1.049,-1.352c-0.439,-1.169 -0.328,-2.395 -0.359,-3.608c-0.047,-1.691 0.169,-3.414 -0.48,-5.047c-0.199,-0.501 -0.361,-1.109 -1.014,-1.159c-0.714,-0.054 -0.847,0.569 -1.014,1.084c-0.354,1.096 -0.558,2.426 -1.965,2.566c-1.525,0.151 -2.567,-0.804 -3.434,-2.004c-1.82,-2.522 -3.341,-5.207 -4.66,-8.018c-0.22,-0.469 -0.341,-1.159 -1.009,-1.159c-0.601,-0.002 -0.625,0.658 -0.831,1.069c-0.397,0.784 -0.825,1.591 -1.872,1.399c-0.977,-0.176 -1.347,-1.023 -1.49,-1.877c-0.304,-1.817 -0.251,-3.652 0.303,-5.412c0.915,-2.895 1.926,-5.756 2.882,-8.638c0.162,-0.487 0.731,-0.977 0.27,-1.494c-0.373,-0.415 -0.927,-0.061 -1.385,0.017c-4.889,0.83 -9.836,1.196 -14.651,-0.041c-7.825,-2.015 -14.857,-5.401 -18.911,-12.995c-0.398,-0.744 -0.884,-1.515 -1.009,-2.324c-0.269,-1.764 -1.263,-2.964 -2.569,-4.037c-3.473,-2.858 -3.657,-6.24 -0.344,-9.282c3.339,-3.066 7.401,-5.038 11.419,-7.038c4.4,-2.188 8.999,-4.004 12.973,-6.969c0.869,-0.65 1.632,-1.451 2.395,-2.233c0.569,-0.58 0.947,-1.324 0.779,-2.152c-0.723,-3.563 0.973,-6.259 3.172,-8.705c6.802,-7.574 15.33,-12.253 25.204,-14.367c6.565,-1.404 13.183,-1.317 19.538,1.228c5.857,2.344 10.261,6.482 13.323,11.913c6.054,10.736 12.154,21.447 18.186,32.193c3.025,5.39 7.492,8.584 12.919,10.911c7.008,3.005 14.415,4.276 21.922,5.066c5.559,0.585 11.086,1.409 16.578,2.4c6.242,1.128 12.553,1.308 18.847,1.641c9.579,0.508 19.175,0.577 28.762,0.865c7.09,0.212 14.223,0.508 21.206,1.826c7.838,1.479 15.475,3.726 22.238,8.213c0.855,0.57 1.659,1.223 2.441,1.894c2.256,1.933 4.786,3.044 7.765,3.63c4.009,0.789 7.607,2.834 11.079,4.979c2.167,1.337 4.491,2.396 6.569,3.903c4.352,3.159 6.224,7.797 7.712,12.655c0.785,2.562 1.209,5.205 0.804,7.907c-0.48,3.194 -2.724,5.014 -5.969,4.801c-1.027,-0.065 -2.056,-0.204 -3.069,-0.394c-1.537,-0.288 -1.742,0.342 -1.206,1.593c1.576,3.68 3.332,7.296 4.673,11.06c1.812,5.083 3.323,10.275 4.932,15.432c2.058,6.599 6.27,11.703 11.23,16.294c3.913,3.623 8.515,6.233 13.141,8.77c4.08,2.239 6.119,5.541 6.111,10.162c-0.009,4.923 -0.004,9.842 0.006,14.765c0.011,4.83 0.614,9.523 2.483,14.061c2.047,4.964 2.892,10.156 1.844,15.518c-1.542,7.905 -6.895,12.307 -14.934,12.454c-3.097,0.058 -6.063,-0.236 -8.718,-2.002c-2.694,-1.791 -4.02,-5.609 -3.088,-8.694c0.344,-1.142 1.172,-1.667 2.19,-1.976c1.22,-0.366 2.461,-0.666 3.698,-0.973c1.096,-0.271 1.836,-0.907 2.151,-2c0.318,-1.105 -0.233,-1.88 -1.014,-2.539c-0.415,-0.35 -0.841,-0.714 -1.321,-0.951c-7.572,-3.724 -15.163,-7.408 -22.774,-11.055c-9.724,-4.66 -19.676,-8.948 -28.593,-15.188c-3.221,-2.253 -6.815,-3.969 -10.076,-6.168c-5.409,-3.652 -9.998,-8.251 -14.462,-12.988c-3.518,-3.735 -6.496,-7.849 -9.192,-12.191c-0.448,-0.724 -0.988,-1.552 -1.974,-0.554c-4.45,4.502 -9.922,7.572 -15.239,10.85c-4.134,2.548 -8.236,5.142 -12.938,6.621c-1.799,0.566 -1.817,1.016 -0.686,2.58c1.531,2.118 1.325,3.033 -1.103,4.168c-2.108,0.984 -4.332,1.579 -6.685,1.609c-0.473,0.006 -1.06,-0.063 -1.328,0.415c-0.367,0.657 0.344,0.783 0.677,1.061c0.753,0.628 0.482,1.149 -0.156,1.616c-0.67,0.488 -1.466,0.551 -2.263,0.557c-2.915,0.033 -5.834,0.119 -8.69,-0.674c-0.441,-0.123 -1.034,-0.476 -1.351,0.007c-0.372,0.57 0.216,1.011 0.555,1.403c0.472,0.549 1.027,1.029 1.531,1.55c0.34,0.352 0.69,0.731 0.512,1.276c-0.183,0.545 -0.687,0.737 -1.171,0.702c-3.856,-0.266 -7.776,0.212 -11.57,-0.877c-2.041,-0.588 -3.086,-2.463 -4.673,-3.836c-0.683,0.929 -0.393,1.918 -0.428,2.824c-0.078,1.954 -0.434,3.665 -2.259,4.878c-1.213,0.808 -1.358,2.386 -1.847,3.682c-0.94,2.493 -1.721,2.724 -3.775,1.096c-0.329,-0.262 -0.642,-0.666 -1.098,-0.506c-0.578,0.201 -0.513,0.783 -0.483,1.254c0.076,1.207 0.236,2.413 0.299,3.622c0.049,0.886 -0.154,1.738 -1.027,2.177c-0.83,0.413 -1.293,-0.247 -1.875,-0.703c-1.189,-0.932 -1.018,0.314 -1.003,0.8c0.084,2.604 0.255,5.209 0.402,7.814c0.033,0.586 0.372,1.278 -0.3,1.661c-0.777,0.445 -1.209,-0.275 -1.683,-0.705c-1.284,-1.159 -2.311,-2.605 -4.006,-3.648c-0.125,1.734 1.046,2.863 1.243,4.266c0.067,0.476 0.298,0.926 0.4,1.399c0.238,1.095 0.428,2.277 -0.638,3.004c-1.029,0.702 -1.766,-0.349 -2.612,-0.729c-0.96,-0.428 -1.571,-2.089 -2.65,-1.459c-0.896,0.523 0.004,1.898 -0.014,2.901c-0.03,1.641 -0.406,3.122 -1.353,4.457c-2.77,3.909 -5.436,7.846 -7.386,12.294c-1.487,3.396 -4.999,4.119 -8.357,4.73c-3.596,0.653 -7.241,0.725 -10.865,1.032c-5.116,0.434 -8.809,-3.042 -9.338,-8.508c-0.303,-3.138 0.826,-5.369 3.422,-7.073c3.648,-2.396 7.382,-4.716 9.942,-8.419c2.608,-3.773 3.561,-7.795 1.983,-12.241c-1.239,-3.498 -2.281,-7.033 -2.696,-10.754c-0.363,-3.25 -2.143,-5.942 -4.136,-8.396c-4.173,-5.144 -8.533,-10.138 -11.205,-16.307c-0.158,-0.363 -0.311,-0.884 -0.863,-0.759c-0.43,0.093 -0.408,0.56 -0.469,0.904c-0.14,0.776 -0.225,1.563 -0.367,2.339c-0.111,0.629 -0.37,1.187 -1.095,1.282c-0.639,0.083 -1.011,-0.343 -1.295,-0.83c-0.867,-1.474 -1.498,-3.049 -1.995,-4.683c-0.136,-0.454 -0.204,-1.098 -0.761,-1.125c-0.703,-0.034 -0.53,0.68 -0.615,1.11c-0.222,1.122 -0.531,2.222 -1.872,2.361c-1.278,0.134 -1.743,-0.915 -2.203,-1.847c-1.87,-3.796 -2.015,-7.957 -2.528,-12.041c-0.11,-0.869 0.143,-1.816 -0.517,-2.61" style="fill:#231f20;fill-rule:nonzero;"/></svg>