<?xml version="1.0" encoding="UTF-8" standalone="no"?><!DOCTYPE svg PUBLIC "-//W3C//DTD SVG 1.1//EN" "http://www.w3.org/Graphics/SVG/1.1/DTD/svg11.dtd"><svg width="100%" height="100%" viewBox="0 0 350 350" version="1.1" xmlns="http://www.w3.org/2000/svg" xmlns:xlink="http://www.w3.org/1999/xlink" xml:space="preserve" xmlns:serif="http://www.serif.com/" style="fill-rule:evenodd;clip-rule:evenodd;stroke-linejoin:round;stroke-miterlimit:2;"><path d="M12.41,268.626l0,-4.418c0.111,-0.134 0.262,-0.249 0.33,-0.4c0.942,-2.128 2.44,-3.764 4.397,-4.997c0.575,-0.36 0.619,-0.872 0.552,-1.468c-0.179,-1.646 -0.02,-3.289 0.165,-4.925c0.168,-1.498 0.872,-2.71 2.151,-3.539c0.653,-0.424 1.306,-0.875 2.017,-1.178c1.808,-0.774 3.383,-1.919 5.026,-2.963c1.112,-0.71 1.866,-1.653 2.374,-2.838c0.377,-0.879 0.7,-1.774 0.882,-2.714c0.33,-1.703 0.465,-3.431 0.522,-5.161c0.152,-4.767 -0.071,-9.528 -0.33,-14.285c-0.135,-2.421 -0.286,-4.849 -0.636,-7.242c-0.559,-3.815 -1.424,-7.576 -2.246,-11.34c-1.468,-6.727 -3.013,-13.44 -3.676,-20.312c-0.317,-3.266 -0.155,-6.457 1.107,-9.578c1.249,-3.088 2.569,-6.155 3.939,-9.188c2.084,-4.616 4.36,-9.148 6.586,-13.696c0.39,-0.798 0.448,-1.495 0.131,-2.347c-2.784,-7.515 -5.427,-15.08 -7.44,-22.844c-0.819,-3.144 -1.522,-6.313 -1.728,-9.575c-0.131,-2.074 -0.151,-4.148 -0.363,-6.222c-0.913,-8.979 -2.556,-17.831 -4.63,-26.604c-0.767,-3.246 -1.804,-6.394 -3.669,-9.249c-1.425,-2.175 -2.398,-4.606 -3.058,-7.141c-0.185,-0.714 -0.366,-1.431 -0.299,-2.178c0.128,-1.394 0.929,-2.121 2.32,-2.057c0.737,0.033 1.467,0.141 2.198,0.222c2.845,0.316 5.653,0.744 8.336,1.851c3.842,1.586 6.599,4.175 8.124,8.094c1.186,3.037 2.135,6.141 2.835,9.313c1.586,7.185 3.084,14.396 4.613,21.598c1.279,6.023 2.774,11.979 5.168,17.679c1.279,3.05 2.808,5.956 5.01,8.454c1.417,1.603 3.107,2.707 5.306,2.98c1.851,0.229 3.713,0.35 5.568,0.407c4.761,0.145 9.525,0.209 14.289,0.273c8.488,0.111 16.976,-0.034 25.467,0.235c6.316,0.199 12.639,0.347 18.958,0.505c6.104,0.155 12.208,0.317 18.312,0.522c7.316,0.249 14.632,0.374 21.948,0.542c3.943,0.091 7.885,0.064 11.821,0.229c2.727,0.115 5.458,0.122 8.188,0.118c1.566,-0.003 3.155,-0.158 4.552,-0.902c2.377,-1.259 4.946,-1.832 7.542,-2.313c7.033,-1.306 14.137,-2.098 21.214,-3.084c4.202,-0.586 8.417,-1.084 12.592,-1.852c1.222,-0.222 2.303,-0.656 3.242,-1.508c0.805,-0.731 1.559,-1.505 2.367,-2.222c4.589,-4.064 7.259,-9.31 9.212,-14.989c0.326,-0.943 0.575,-1.94 0.437,-2.933c-0.508,-3.69 -1.091,-7.37 -1.633,-11.053c-0.104,-0.71 -0.481,-1.155 -1.107,-1.485c-3.071,-1.606 -6.125,-3.242 -9.195,-4.848c-0.99,-0.518 -1.128,-0.475 -1.529,0.556c-0.626,1.619 -1.4,3.171 -2.185,4.713c-0.925,1.815 -1.902,3.603 -3.201,5.185c-0.926,1.128 -2.051,1.7 -3.546,1.313c-0.717,-0.185 -1.458,-0.172 -2.195,-0.222c-1.121,-0.078 -1.549,-0.549 -1.478,-1.68c0.044,-0.731 0.182,-1.461 0.313,-2.182c0.559,-3.128 0.872,-6.259 0.374,-9.43c-0.216,-1.367 -0.327,-2.751 -0.296,-4.145c0.074,-3.478 1.424,-6.198 4.572,-7.885c1.067,-0.569 2.124,-1.155 3.269,-1.582c3.703,-1.381 7.242,-3.054 10.403,-5.502c2.323,-1.801 4.785,-3.434 7.276,-5.003c1.576,-0.993 3.202,-1.404 5.07,-1.07c2.448,0.437 4.791,1.202 7.064,2.171c1.337,0.569 2.599,0.643 4.023,0.408c10.596,-1.765 21.201,-3.468 31.803,-5.162c0.96,-0.155 1.677,-0.525 2.266,-1.32c1.226,-1.663 2.744,-2.999 4.66,-3.841l3.377,0c0.367,0.121 0.73,0.263 1.107,0.36c2.835,0.748 5.683,1.465 8.512,2.239c4.457,1.219 8.885,2.549 13.197,4.188c2.744,1.044 5.428,2.206 8.374,2.566c0.532,0.064 0.963,0.364 1.303,0.781l0,6.498c-0.074,0.384 -0.162,0.761 -0.216,1.145c-0.515,3.73 -1.545,7.232 -3.744,10.396c-2.158,3.111 -3.707,6.552 -4.491,10.299c-0.195,0.933 -0.374,1.869 -0.62,2.788c-0.181,0.69 -0.202,1.65 -1.094,1.737c-0.976,0.098 -1.175,-0.875 -1.444,-1.579c-0.758,-1.979 -0.913,-4.047 -0.768,-6.137c0.081,-1.216 0.155,-2.424 -0.198,-3.61c-0.428,-1.444 -1.297,-2.545 -2.653,-3.201c-0.805,-0.394 -1.142,-0.27 -1.59,0.525c-0.464,0.828 -0.828,1.72 -1.336,2.522c-0.744,1.168 -0.906,2.363 -0.663,3.72c0.764,4.262 1.363,8.548 1.616,12.881c0.161,2.788 0.067,5.542 -0.771,8.229c-1.219,3.915 -3.068,7.531 -5.259,10.982c-1.3,2.044 -2.633,4.071 -3.956,6.104c-0.586,0.899 -0.835,1.869 -0.805,2.953c0.054,1.949 -0.077,3.892 -0.31,5.831c-0.633,5.253 -2.06,10.245 -4.508,14.962c-1.922,3.7 -4.256,7.138 -6.494,10.636c-0.448,0.7 -0.792,1.431 -1.014,2.236c-0.959,3.511 -1.683,7.077 -2.505,10.619c-1.623,6.999 -2.956,14.059 -4.868,20.998c-1.64,5.953 -3.899,11.562 -7.363,16.669c-3.653,5.391 -7.784,10.394 -12.363,15.023c-0.586,0.593 -1.074,1.229 -1.408,2c-1.693,3.939 -3.407,7.868 -5.1,11.807c-1.286,2.983 -2.552,5.97 -3.828,8.956c-1.478,3.464 -3.01,6.909 -4.307,10.447c-2.097,5.737 -3.949,11.555 -5.673,17.41c-0.737,2.491 -1.555,4.976 -1.858,7.562c-0.535,4.528 -0.32,9.083 -0.29,13.629c0.007,1.03 0.145,1.202 1.138,1.424c1.283,0.289 2.465,0.808 3.623,1.407c2.461,1.28 4.885,2.623 7.235,4.091c1.802,1.128 3.532,2.353 4.647,4.255c1.329,2.273 0.68,4.599 -1.657,5.805c-1.259,0.653 -2.623,0.865 -4.02,0.916c-2.609,0.097 -5.185,-0.209 -7.733,-0.758c-0.425,-0.091 -0.883,-0.357 -1.344,-0.047c0.158,0.515 0.576,0.707 0.899,0.976c2.865,2.381 5.67,4.828 8.087,7.683c0.758,0.896 1.482,1.815 1.973,2.886c0.879,1.902 0.276,3.865 -1.505,4.956c-0.404,0.249 -0.842,0.444 -1.262,0.663l-13.777,0c-0.539,-0.205 -1.108,-0.209 -1.667,-0.222c-2.868,-0.071 -5.693,-0.512 -8.501,-1.044c-1.451,-0.276 -2.845,-0.744 -4.138,-1.492c-0.996,-0.575 -1.636,-1.397 -1.902,-2.508c-0.32,-1.357 -0.478,-2.72 -0.36,-4.121c0.212,-2.552 0.703,-5.06 1.053,-7.589c0.411,-2.969 0.108,-5.713 -2.151,-7.945c-0.246,-0.243 -0.441,-0.536 -0.653,-0.808c-1.269,-1.616 -2.226,-3.387 -2.859,-5.357c-0.75,-2.333 -0.969,-4.744 -1.228,-7.154c-0.219,-2.068 -0.391,-4.148 -1.061,-6.131c-1.007,-2.966 -1.656,-6.01 -2.091,-9.104c-0.626,-4.458 -1.33,-8.905 -1.848,-13.38c-0.502,-4.299 -1.121,-8.585 -1.566,-12.891c-0.289,-2.798 -0.639,-5.593 -0.963,-8.387c-0.148,-1.276 -0.276,-1.411 -1.464,-1.552c-0.475,-0.057 -0.95,-0.101 -1.424,-0.141c-7.596,-0.623 -15.175,-1.401 -22.699,-2.657c-4.616,-0.768 -9.219,-1.623 -13.72,-2.905c-9.575,-2.738 -19.066,-5.758 -28.557,-8.781c-5.815,-1.855 -11.643,-3.68 -17.444,-5.589c-5.757,-1.899 -11.531,-3.744 -17.238,-5.791c-2.491,-0.895 -5.09,-1.172 -7.683,-0.663c-6.343,1.239 -10.854,5.05 -13.881,10.575c-3.199,5.838 -7.023,11.11 -12.259,15.295c-1.42,1.138 -2.993,2.064 -4.467,3.132c-5.515,3.989 -10.66,8.437 -15.737,12.955c-4.69,4.175 -9.269,8.478 -13.915,12.696c-0.885,0.802 -1.239,1.599 -0.902,2.845c1.202,4.475 2.444,8.939 3.66,13.41c0.74,2.717 2.292,4.155 5.03,4.434c0.343,0.037 0.683,0.111 1.023,0.179c1.189,0.232 2.38,0.451 3.566,0.717c2.44,0.542 4.689,1.515 6.662,3.077c0.926,0.734 1.741,1.566 2.303,2.616c0.754,1.407 0.603,2.623 -0.431,3.838c-0.764,0.903 -1.757,1.377 -2.882,1.64c-1.346,0.313 -2.669,0.135 -3.986,-0.165c-0.525,-0.121 -0.993,-0.216 -1.37,0.36c-1.229,1.879 -3.047,2.397 -5.188,2.229c-2.428,-0.189 -4.802,-0.667 -7.165,-1.209c-1.485,-0.34 -2.909,-0.838 -4.306,-1.444c-0.916,-0.397 -1.603,-0.997 -2.04,-1.899c-0.529,-1.091 -1.054,-2.182 -1.448,-3.333c-1.209,-3.525 -2.192,-7.118 -3.192,-10.707c-0.087,-0.309 -0.098,-0.656 -0.465,-1.06c-0.077,1.256 -0.164,2.33 -0.212,3.407c-0.111,2.774 0.048,5.545 0.273,8.306c0.236,2.889 0.458,5.788 1.02,8.636c0.536,2.717 1.694,5.077 3.96,6.801c1.144,0.872 2.114,1.926 2.895,3.138c1.919,2.979 3.165,6.248 4.128,9.635c0.272,0.943 0.114,1.182 -0.815,1.613c-2.05,0.95 -4.175,1.673 -6.38,2.179c-1.727,0.393 -3.434,0.373 -5.151,-0.017c-1.266,-0.29 -2.596,-0.485 -3.734,-1.084c-2.279,-1.196 -4.643,-1.189 -7.074,-0.866c-0.084,0.01 -0.171,0.021 -0.256,0.027c-1.323,0.145 -2.259,-0.411 -2.875,-1.562c-0.518,-0.96 -0.895,-1.973 -1.101,-3.044c-0.65,-3.37 -0.936,-6.774 -0.774,-10.204c0.225,-4.717 0.444,-9.431 0.7,-14.141c0.192,-3.501 0.465,-7 0.66,-10.501c0.148,-2.724 0.249,-5.444 -0.192,-8.164c-0.508,-3.122 -1.252,-6.195 -1.875,-9.293c-0.068,-0.333 -0.256,-0.64 -0.387,-0.959" style="fill:#231f20;fill-rule:nonzero;"/></svg>