<?xml version="1.0" encoding="UTF-8" standalone="no"?><!DOCTYPE svg PUBLIC "-//W3C//DTD SVG 1.1//EN" "http://www.w3.org/Graphics/SVG/1.1/DTD/svg11.dtd"><svg width="100%" height="100%" viewBox="0 0 350 350" version="1.1" xmlns="http://www.w3.org/2000/svg" xmlns:xlink="http://www.w3.org/1999/xlink" xml:space="preserve" xmlns:serif="http://www.serif.com/" style="fill-rule:evenodd;clip-rule:evenodd;stroke-linejoin:round;stroke-miterlimit:2;"><path d="M82.001,308.655c-2.855,-0.004 -5.713,-0.044 -8.569,0.008c-2.911,0.05 -4.432,-1.391 -4.701,-4.217c-0.449,-4.735 -1.414,-9.502 -1.16,-14.201c0.329,-6.055 -0.137,-12.091 0.229,-18.142c0.28,-4.599 -0.218,-9.273 -0.691,-13.88c-0.36,-3.487 0.383,-6.58 1.989,-9.598c8.109,-15.234 10.945,-31.307 7.565,-48.331c-0.762,-3.849 -1.793,-7.642 -2.587,-11.485c-2.008,-9.737 -1.008,-19.222 2.908,-28.324c1.183,-2.748 0.525,-4.206 -2.025,-5.335c-5.44,-2.405 -10.812,-4.965 -16.269,-7.327c-9.519,-4.118 -17.696,-10.085 -25.073,-17.329c-3.31,-3.25 -6.759,-6.345 -9.686,-9.959c-0.745,-0.922 -1.497,-1.847 -2.166,-2.826c-0.764,-1.123 -1.333,-2.431 -0.435,-3.651c0.877,-1.192 2.178,-0.542 3.305,-0.254c3.737,0.953 7.117,2.761 10.348,4.765c11.433,7.094 23.786,12.022 36.731,15.397c8.265,2.153 16.571,2.278 24.99,-0.34c11.277,-3.507 22.949,-3.672 34.657,-2.591c11.474,1.054 22.816,3.593 34.432,3.081c10.339,-0.457 20.762,-0.838 30.872,-2.829c7.492,-1.477 14.613,-4.909 21.853,-7.592c5.351,-1.985 10.729,-3.966 15.988,-6.117c5.52,-2.26 9.019,-7.234 11.183,-12.76c2.733,-6.988 4.101,-14.424 5.888,-21.664c2.702,-10.937 21.021,-23.555 32.962,-21.376c4.597,0.837 9.533,-0.308 13.705,2.872c1.041,0.794 2.535,0.225 3.801,-0.198c5.98,-1.999 11.972,-3.961 17.944,-5.986c4.224,-1.435 5.944,-0.66 7.377,3.46c2.331,6.707 0.779,12.272 -4.367,16.892c-3.227,2.897 -6.959,4.98 -10.519,7.354c-0.837,0.556 -2.278,0.979 -1.847,2.262c0.4,1.196 1.829,0.919 2.853,0.879c3.202,-0.116 6.428,0.117 9.6,-0.585c0.806,-0.177 1.654,-0.173 2.483,-0.219c3.151,-0.171 5.455,1.242 6.136,4.266c0.702,3.112 -1.314,4.843 -4.07,5.797c-5.174,1.789 -10.229,4.153 -15.546,5.236c-9.288,1.897 -13.912,8.61 -17.813,16.034c-3.56,6.767 -5.201,14.236 -6.738,21.722c-2.785,13.563 -3.349,27.362 -4.607,41.078c-0.758,8.259 -4.87,14.513 -10.015,20.427c-3.122,3.588 -6.263,7.165 -9.485,10.666c-1.254,1.362 -1.656,2.806 -1.316,4.572c1.004,5.232 0.535,10.412 -0.471,15.596c-2.247,11.587 -3.666,23.258 -3.247,35.092c0.043,1.186 0.208,2.369 0.331,3.55c0.6,5.742 3.239,9.433 9.41,10.262c3.179,0.425 6.618,6.282 6.151,9.454c-0.212,1.456 -1.212,1.643 -2.325,1.629c-2.62,-0.032 -5.171,0.889 -7.821,0.487c-0.935,-0.144 -2.085,-0.252 -2.314,1.014c-0.214,1.177 0.892,1.542 1.719,1.979c0.935,0.494 1.987,0.769 2.63,1.746c2.089,3.17 0.746,6.352 -3.045,6.661c-5.336,0.435 -10.687,0.683 -16.021,-0.25c-4.674,-0.821 -6.572,-2.26 -7.432,-6.874c-2.591,-13.901 -6.169,-27.621 -7.338,-41.784c-0.706,-8.548 -2.574,-16.921 -4.488,-25.276c-0.571,-2.491 -1.829,-4.596 -3.16,-6.733c-1.489,-2.396 -3.493,-3.193 -6.23,-3.352c-7.952,-0.458 -15.882,-1.287 -23.832,-1.756c-14.772,-0.87 -28.05,-5.959 -40.385,-13.869c-3.842,-2.462 -8.027,-4.174 -12.43,-5.32c-3.778,-0.983 -5.428,-0.029 -6.163,3.757c-1.144,5.895 -4.287,10.725 -7.532,15.62c-4.499,6.784 -10.264,12.48 -15.446,18.664c-8.43,10.054 -8.898,21.635 -7.588,33.739c0.296,2.732 1.947,4.505 4.178,5.882c3.141,1.937 5.553,4.369 6.138,8.279c0.394,2.645 -0.306,4.722 -2.943,5.274c-5.497,1.149 -11.064,1.333 -16.561,-0.161c-2.139,-0.579 -3.286,-2.014 -3.695,-4.299c-1.439,-8.081 -3.089,-16.127 -2.795,-24.409c0.036,-1.006 0.502,-2.493 -0.766,-2.837c-1.354,-0.366 -1.55,1.192 -1.942,2.11c-3.553,8.344 -5.028,17.013 -4.051,26.074c0.363,3.347 1.808,5.332 5.424,5.969c4.768,0.846 8.717,6.746 8.136,11.4c-0.29,2.301 -2.096,2.88 -3.868,2.978c-3.437,0.19 -6.892,0.056 -10.342,0.052" style="fill:#231f20;fill-rule:nonzero;"/></svg>