<?xml version="1.0" encoding="UTF-8" standalone="no"?><!DOCTYPE svg PUBLIC "-//W3C//DTD SVG 1.1//EN" "http://www.w3.org/Graphics/SVG/1.1/DTD/svg11.dtd"><svg width="100%" height="100%" viewBox="0 0 350 350" version="1.1" xmlns="http://www.w3.org/2000/svg" xmlns:xlink="http://www.w3.org/1999/xlink" xml:space="preserve" xmlns:serif="http://www.serif.com/" style="fill-rule:evenodd;clip-rule:evenodd;stroke-linejoin:round;stroke-miterlimit:2;"><path d="M26.545,166.889l0,-4.201c1.231,-4.709 4.532,-8.027 7.554,-11.596c2.709,-3.203 6.133,-5.497 9.298,-8.108c1.564,-1.295 1.948,-3.318 3.603,-4.505c3.22,-2.311 6.286,-4.841 9.451,-7.234c7.465,-5.65 15.947,-8.614 25.252,-8.196c6.67,0.292 13.285,-0.908 19.938,-0.156c1.435,0.159 2.934,-0.259 4.399,-0.412c0.551,-0.061 1.217,-0.109 1.159,-0.85c-0.143,-1.781 1.18,-1.89 2.302,-1.907c4.949,-0.075 9.95,-0.561 14.662,1.663c1.159,0.55 2.471,1.543 3.739,0.87c2.016,-1.071 3.781,-0.446 5.586,0.285c3.872,1.564 7.938,3.091 12.007,2.016c3.121,-0.822 5.919,-0.363 8.863,0.045c1.886,0.258 1.781,-0.636 1.138,-1.887c-0.829,-1.615 -2.026,-2.937 -3.297,-4.209c-0.326,-0.326 -0.704,-0.731 -0.357,-1.21c0.347,-0.476 0.853,-0.211 1.275,-0.041c0.788,0.32 1.547,0.724 2.349,1c3.631,1.251 6.959,2.621 8.234,6.911c1.043,3.505 3.855,4.793 7.496,4.229c0.996,-0.157 2.026,-0.337 3.012,-0.242c1.896,0.184 2.78,-0.506 2.729,-2.451c-0.034,-1.24 0.201,-2.345 1.843,-2.406c2.669,-0.109 5.245,0.017 7.69,1.38c2.44,1.36 4.973,2.587 7.547,3.688c4.494,1.921 9.07,3.148 14.057,1.758c2.376,-0.663 4.909,-0.836 7.411,-0.745c1.298,0.045 2.155,-0.414 2.825,-1.601c1.325,-2.349 3.185,-2.883 5.657,-1.744c1.023,0.473 2.07,0.66 3.171,0.582c0.687,-0.045 1.197,-0.269 1.112,-1.139c-0.299,-2.944 0.595,-5.606 1.934,-8.173c0.354,-0.68 0.979,-1.346 0.667,-2.301c-1.183,0.329 -1.993,1.961 -3.21,0.897c-1.115,-0.972 -0.027,-2.162 0.15,-3.257c0.177,-1.074 1.268,-1.914 0.914,-3.229c-0.373,0.109 -0.598,0.149 -0.802,0.241c-0.717,0.33 -1.081,1.673 -2.074,1.054c-0.812,-0.51 -0.129,-1.411 -0.006,-2.145c0.251,-1.475 -0.718,-1.04 -1.442,-0.867c-0.802,0.19 -1.598,0.877 -2.4,0.133c-1.142,-1.064 -1.064,-3.852 0.133,-4.964c0.928,-0.863 1.445,-1.614 -0.293,-2.022c-2.396,-0.561 -3.324,-3.04 -5.425,-4.083c-0.976,-0.486 -1.323,-1.972 -0.313,-3.07c0.85,-0.925 0.605,-1.598 -0.194,-2.373c-1.441,-1.397 -2.485,-3.049 -2.288,-5.14c0.119,-1.248 -0.428,-1.995 -1.207,-2.845c-3.317,-3.624 -5.082,-8.237 -7.652,-12.341c-0.408,-0.652 -0.19,-1.672 -0.357,-2.505c-0.615,-3.101 1.047,-5.861 1.302,-8.842c0.225,-2.625 -0.296,-5.293 0.571,-7.88c1.357,-4.053 2.982,-4.348 6.738,-2.55c3.685,1.761 6.595,4.62 10.542,6.092c6.52,2.431 12.493,6.139 18.198,10.185c1.19,0.843 2.301,0.989 3.219,-0.34c1.86,-2.696 4.542,-4.12 7.574,-5.072c1.054,-0.333 1.962,-0.612 2.404,0.812c0.187,0.609 0.744,1.064 1.142,0.306c1.571,-2.985 2.006,-1.02 2.499,0.626c0.731,-0.5 0.741,-1.921 1.496,-1.7c2.298,0.666 2.641,-1.336 3.674,-2.38c1.316,-1.322 2.883,-2.175 4.712,-2.359c2.489,-0.248 4.807,-1.955 7.479,-0.826c0.378,0.16 1.03,-0.241 1.523,-0.462c1.006,-0.449 2.037,-0.837 3.141,-0.799c1.952,0.068 2.465,-0.497 2.084,-2.632c-0.472,-2.665 -0.622,-5.429 2.023,-7.597c1.948,-1.598 3.954,-3.084 5.042,-5.814c3.256,-8.159 8.617,-14.893 15.563,-20.319l0.469,0c1.264,0.51 2.087,1.333 2.012,2.805c-0.064,1.248 0.548,2.165 1.272,3.144c3.005,4.043 6.231,7.972 8.73,12.32c1.414,2.458 4.181,5.266 1.315,8.656c-0.557,0.659 -0.224,1.23 0.724,1.043c2.506,-0.486 1.51,0.684 0.949,1.836c-0.741,1.516 -0.928,3.315 0.833,4.028c2.434,0.99 2.022,1.846 0.425,3.182c-1.279,1.075 -1.496,2.04 0.278,3.006c1.663,0.904 0.895,3.29 2.36,4.412c-1.574,1.921 -1.516,4.263 -1.55,6.534c-0.038,2.54 -1.16,4.749 -1.857,7.098c-0.965,3.247 -0.683,6.67 -1.162,9.988c-0.163,1.156 0.85,2.278 0.132,3.413c-1.111,1.751 -0.591,3.617 0.15,5.106c0.986,1.976 0.846,3.22 -1.119,4.175c-0.945,0.459 -0.999,1.085 -0.492,1.887c0.373,0.591 0.771,1.169 1.128,1.774c1.941,3.305 5.096,6.293 2.832,10.712c1.431,3.118 -0.439,4.987 -2.397,7.034c-0.88,0.925 -1.686,1.812 -2.852,2.237c-2.101,0.768 -2.767,2.271 -1.717,4.157c2.081,3.75 0.996,4.998 -1.676,7.962c-2.882,3.203 -3.875,1.588 -5.48,-0.598c-0.027,-0.034 -0.255,0.071 -0.489,0.143c0.731,2.706 2.968,3.821 5.143,5.011c0.534,0.292 1.228,0.594 0.911,1.387c-0.251,0.639 -0.914,0.418 -1.441,0.458c-1.486,0.102 -2.869,-0.856 -4.797,-0.557c1.737,1.265 3.277,1.832 5.015,1.948c0.622,0.041 1.315,0.18 1.4,0.965c0.065,0.629 -0.445,0.99 -0.945,1.207c-2.485,1.061 -1.176,1.646 0.248,2.288c0.813,0.364 1.829,0.945 0.568,1.775c-1.516,1.006 -1.866,2.607 -1.989,4.028c-0.105,1.197 -1.713,1.832 -1.2,2.523c1.02,1.376 0.228,2.495 -0.428,3.114c-1.499,1.404 -0.53,1.903 0.466,2.774c1.077,0.938 2.627,2.043 0.214,3.318c-0.211,0.112 -0.439,0.686 -0.384,0.734c1.295,1.142 -0.034,3.301 1.716,4.293c0.609,0.347 0.996,1.098 0.432,1.812c-0.568,0.718 -1.254,0.272 -1.91,0.038c-1.037,-0.364 -1.911,-1.234 -3.349,-1.214c0.918,2.295 2.907,3.505 3.92,5.426c0.741,1.404 1.098,2.842 0.18,4.185c-0.85,1.24 -2.21,0.724 -3.444,0.557c-0.938,-0.122 -2.118,-0.914 -2.784,0.235c-0.7,1.21 -0.364,2.573 0.224,3.807c0.33,0.7 1.047,0.864 1.697,1.132c1.438,0.592 2.509,1.282 0.686,2.737c-0.72,0.574 -0.703,1.186 0.208,1.608c0.574,0.265 1.258,0.534 1.009,1.319c-0.258,0.819 -1.081,0.755 -1.771,0.826c-0.921,0.088 -2.002,-0.014 -2.179,1.251c-0.149,1.091 0.622,1.724 1.482,2.155c1.404,0.707 2.645,1.343 0.184,2.343c-0.197,0.081 -0.428,0.598 -0.347,0.764c1.476,2.941 -0.772,1.904 -2.04,1.948c-0.367,0.011 -0.89,0.045 -1.053,0.269c-0.354,0.496 0.166,0.833 0.482,1.149c0.66,0.656 1.442,1.227 1.693,2.186c0.218,0.836 0.486,1.985 -0.561,2.203c-1.502,0.319 -2.155,0.935 -2.022,2.471c0.04,0.493 -0.422,0.854 -0.915,0.922c-2.356,0.329 -2.842,2.556 -3.631,4.086c-1.081,2.09 -1.58,2.719 -3.797,1.941c-0.659,-0.231 -1.302,-0.547 -1.978,-0.68c-0.942,-0.18 -1.812,0.272 -1.262,1.231c1.595,2.767 0.082,5.473 0.051,8.193c-0.013,1.397 -0.846,2.648 -2.621,1.968c-1.081,-0.412 -1.635,-0.184 -1.866,0.894c-0.32,1.496 -1.795,2.502 -1.591,4.283c0.109,0.956 -0.687,0.864 -1.21,0.242c-0.666,-0.796 -0.986,-1.748 -1.153,-2.771c-0.112,-0.697 0.004,-1.574 -1.41,-1.978c0.499,2.447 0.951,4.62 1.383,6.795c0.143,0.724 0.534,1.911 -0.724,1.659c-2.9,-0.574 -1.326,1.102 -1.095,2.006c0.17,0.67 0.595,1.265 0.857,1.914c0.177,0.435 0.255,1.217 -0.238,1.166c-1.995,-0.197 -4.032,-0.768 -4.848,1.924c-2.42,-0.53 -1.567,0.867 -1.04,1.88c0.704,1.343 -0.156,2.176 -0.785,3.145c-0.728,1.125 -1.676,0.931 -2.676,0.567c-0.615,-0.217 -1.274,-0.435 -1.652,0.276c-0.799,1.506 -2.09,1.713 -3.569,1.472c-0.384,-0.062 -0.762,-0.289 -0.962,0.241c-0.701,1.843 -2.574,2.941 -3.121,4.868c-0.469,1.649 -1.18,2.128 -2.526,0.717c-0.442,-0.462 -0.993,-1.315 -1.713,-0.703c-0.636,0.533 0.017,1.295 0.217,1.931c0.095,0.292 0.255,0.571 0.412,0.836c0.469,0.802 1.183,1.618 0.401,2.536c-0.701,0.826 -1.683,0.687 -2.601,0.36c-1.795,-0.635 -1.819,0.425 -1.635,1.683c0.483,3.257 0.612,6.503 -0.306,9.719c-0.102,0.364 -0.218,0.84 -0.075,1.143c1.193,2.559 -0.129,3.508 -2.702,3.709c1.132,1.285 1.026,2.284 0.448,3.6c-2.383,5.412 -5.476,10.514 -6.591,16.474c-0.612,3.26 1.064,8.988 3.95,10.708c4.215,2.516 8.291,5.623 13.758,3.893c0.873,-0.279 2.033,-0.106 2.213,1.108c0.173,1.19 0.721,1.234 1.744,1.197c1.683,-0.058 3.263,1.907 2.325,2.798c-2.652,2.525 -0.143,3.192 1.214,4.378c0.404,0.357 0.778,0.775 1.071,1.227c1.098,1.7 0.713,2.72 -1.231,3.301c-1.509,0.459 -3.077,0.405 -4.634,0.405c-15.794,-0.007 -31.591,-0.027 -47.389,-0.01c-3.814,0.006 -6.983,-2.944 -7.119,-6.844c-0.034,-0.955 -0.262,-1.529 -1.237,-1.958c-1.435,-0.625 -2.145,-1.744 -1.319,-3.372c0.856,-1.693 0.782,-4.12 0.092,-5.093c-1.367,-1.924 -0.283,-2.784 0.493,-4.052c0.625,-1.03 1.264,-2.077 1.152,-3.467c-0.935,0.044 -1.445,0.547 -2.006,0.938c-0.734,0.513 -1.448,1.475 -2.43,0.636c-0.949,-0.809 -1.84,-1.765 -1.183,-3.227c0.227,-0.499 0.499,-1.094 0.207,-1.574c-1.166,-1.893 -0.156,-3.09 1.074,-4.463c1.214,-1.353 1.306,-2.961 -0.238,-4.318c-0.34,-0.292 -1.03,-0.826 -0.687,-1.016c2.064,-1.156 0.986,-3.909 2.407,-4.98c1.918,-1.449 2.074,-2.4 0.276,-3.889c-0.422,-0.351 -0.214,-1.041 0.074,-1.53c0.497,-0.826 0.463,-1.822 0.813,-2.652c0.836,-1.992 0.554,-4.603 3.175,-5.684c0.779,-0.323 1.006,-1.254 0.643,-2.24c-1.391,-3.763 -1.166,-7.622 -0.534,-11.491c0.088,-0.55 0.245,-1.115 -0.235,-1.523c-0.578,-0.496 -1.016,-0.064 -1.359,0.371c-1.115,1.411 -2.227,0.918 -3.468,0.143c-0.952,-0.599 -1.887,-1.635 -3.148,-1.173c-1.506,0.557 -2.325,-0.184 -3.185,-1.19c-0.877,-1.03 -1.86,-1.649 -3.413,-1.56c-1.466,0.085 -2.829,-0.561 -3.407,-2.261c-0.445,-1.309 -1.941,-1.506 -2.893,-2.288c-1.319,1.758 -2.842,0.347 -4.249,0.208c-1.003,-0.096 -1.601,0.18 -2.149,0.972c-1.89,2.733 -2.291,2.672 -4.011,-0.221c-0.823,-1.38 -0.446,-2.669 0.149,-4.324c-1.05,0.595 -1.903,0.839 -2.794,0.336c-0.422,-0.238 -1.047,-0.33 -1.312,0.058c-1.901,2.818 -4.352,1.027 -6.609,0.853c-0.676,-0.054 -1.227,-0.336 -1.445,-0.996c-0.404,-1.244 -0.945,-0.894 -2.043,-0.697c-1.39,0.248 -2.971,-0.523 -4.46,-0.897c-0.088,-0.021 -0.177,-0.466 -0.102,-0.646c0.704,-1.737 -0.69,-2.149 -1.744,-2.621c-1.112,-0.49 -2.128,-0.806 -1.822,-2.414c0.153,-0.795 -0.524,-0.945 -1.278,-0.785c-2.941,0.622 -4.828,-1.904 -7.316,-2.693c-1.078,-0.343 -2.21,-1.88 -3.549,-2.675c-1.292,-0.775 -2.574,-1.659 -3.798,-2.56c-1.155,-0.853 -2.389,-2.944 -4.552,-1.611c-3.192,1.961 -6.924,1.356 -9.273,-1.506c-0.565,-0.687 -1.092,-1.054 -1.979,-0.714c-1.319,0.503 -2.529,0.156 -3.841,-0.265c-2.074,-0.673 -4.267,-1.241 -5.763,1.258c-0.618,1.033 -1.601,0.883 -2.689,0.666c-1.822,-0.367 -3.236,0.047 -3.321,2.369c-0.051,1.33 -0.36,2.696 -1.666,3.427c-2.138,1.2 -2.927,2.835 -2.087,5.239c0.18,0.516 -0.051,1.224 -0.214,1.808c-1.051,3.709 -2.591,7.258 -3.135,11.144c-0.227,1.642 -1.234,3.145 -2.777,4.375c-2.013,1.595 -4.318,3.563 -3.916,6.473c0.278,2.016 -0.109,3.43 -1.319,4.892c-0.928,1.122 -1.51,2.318 -0.351,3.77c0.816,1.02 0.194,2.08 -0.72,2.573c-2.475,1.333 -2.513,3.753 -2.329,5.868c0.194,2.264 -0.513,3.828 -1.859,5.466c-1.795,2.176 -1.918,5.181 -0.735,7.184c0.401,0.676 2.914,1.795 -0.16,2.386c-0.323,0.065 -0.078,0.564 0.072,0.809c0.493,0.806 0.098,1.686 0.231,2.468c0.391,2.322 -1.295,4.766 0.054,6.864c1.7,2.635 2.652,5.599 4.189,8.291c0.941,1.656 2.07,2.479 4.116,2.285c5.637,-0.524 10.08,2.223 14.081,5.721c2.264,1.979 1.924,5.565 -0.394,6.092c-2.414,0.544 -4.623,1.802 -7.142,1.931l-7.007,0c-4.246,-0.721 -8.529,-0.258 -12.792,-0.313c-3.665,-0.044 -7.269,-0.445 -10.858,-1.094c-1.5,-0.272 -2.061,-1.207 -2.101,-2.628c-0.143,-4.698 -1.632,-8.92 -4.556,-12.626c-0.782,-0.993 -1.468,-2.067 -3.039,-1.421c-0.775,0.316 -1.118,-0.286 -1.397,-0.867c-0.34,-0.7 -0.575,-1.53 -1.302,-1.89c-2.703,-1.343 -3.104,-3.627 -2.781,-6.303c0.116,-0.918 0.061,-1.859 0.048,-2.794c-0.024,-1.261 -0.344,-2.288 -1.84,-2.543c-1.081,-0.187 -1.655,-1.088 -1.597,-2.033c0.159,-2.529 -1.364,-4.232 -2.706,-6.01c-1.839,-2.431 -3.199,-5.032 -2.785,-8.166c0.361,-2.754 0.742,-5.534 1.476,-8.203c1.207,-4.392 3.032,-8.72 1.689,-13.343c-1.431,-4.94 0.925,-10.355 -2.033,-15.06c-0.074,-0.119 -0.095,-0.313 -0.064,-0.456c0.639,-3.239 -0.238,-6.109 -2.026,-8.798c-0.218,-0.323 -0.14,-0.907 -0.072,-1.349c0.432,-2.795 0.296,-2.951 -2.655,-2.832c-0.53,0.024 -1.176,0.255 -1.41,-0.428c-0.235,-0.674 0.414,-0.912 0.832,-1.224c1.489,-1.119 3.169,-2.033 4.382,-4.277c-2.468,0.751 -4.433,2.322 -6.54,0.483c-0.272,-0.235 -1.231,0.489 -1.571,-0.35c-0.319,-0.799 0.347,-1.262 0.779,-1.802c0.659,-0.816 2.396,-1.268 1.944,-2.288c-0.411,-0.931 -2.091,-0.428 -3.202,-0.588c-0.303,-0.044 -0.622,0.027 -0.932,0.013c-0.537,-0.023 -1.193,0.031 -1.315,-0.662c-0.095,-0.531 0.418,-0.762 0.829,-1c1.377,-0.778 2.71,-1.611 3.865,-3.066c-1.053,0.058 -2.049,0.778 -2.481,0.024c-1.115,-1.938 -2.992,-3.645 -2.193,-6.317c0.592,-1.982 -0.044,-3.722 -1.122,-5.493c-1.05,-1.727 -2.012,-3.468 -2.267,-5.718c-0.194,-1.68 -0.123,-3.281 -0.058,-4.909c0.139,-3.431 -0.15,-6.912 2.04,-9.998c1.244,-1.758 1.812,-3.862 0.833,-6.188c-0.823,0.453 -0.813,1.132 -0.99,1.693c-1.071,3.427 -4.004,5.518 -7.475,5.416c-1.564,-0.041 -2.224,-0.69 -1.676,-2.186c0.707,-1.938 0.319,-3.726 -0.728,-5.344c-1.278,-1.975 -2.233,-4.083 -2.995,-6.293" style="fill:#231f20;fill-rule:nonzero;"/></svg>